# xmcd
#
# Track frame offsets:
#	150
#	23733
#	44402
#	62718
#	85198
#	96361
#	117843
#	141940
#	165341
#	170231
#	184058
#	198997
#	219007
#	240505
#	276360
#
# Disc length: 4149 seconds
#
# Revision: 1
# Processed by: cddbd v1.5.1PL0 Copyright (c) Steve Scherf et al.
# Submitted via: audiograbber 1.83.01
#
DISCID=cf10330f
DTITLE=Kevin Montgomery - Live! From Glasgow
DYEAR=2003
DGENRE=
TTITLE0=Cherokee city
TTITLE1=Another long story
TTITLE2=Let's all go to California
TTITLE3=Tennesee girl
TTITLE4=I don't even know your name
TTITLE5=I wish I were blind
TTITLE6=Angel tonight
TTITLE7=Broken
TTITLE8=Intro
TTITLE9=Flower of my heart
TTITLE10=Cajun song
TTITLE11=Melrose
TTITLE12=Crossroads
TTITLE13=Ooh Las Vegas
TTITLE14=Fear nothing
EXTD=
EXTT0=
EXTT1=
EXTT2=
EXTT3=
EXTT4=
EXTT5=
EXTT6=
EXTT7=
EXTT8=
EXTT9=
EXTT10=
EXTT11=
EXTT12=
EXTT13=
EXTT14=
PLAYORDER=
